<svg width="339" height="271" viewBox="0 0 339 271" fill="none" xmlns="http://www.w3.org/2000/svg">
<g clip-path="url(#clip0_224_185)">
<path d="M169.5 0C178.875 0 186.45 7.56894 186.45 16.9375V50.8125H250.013C271.094 50.8125 288.15 67.8559 288.15 88.9219V232.891C288.15 253.957 271.094 271 250.013 271H88.9875C67.9059 271 50.85 253.957 50.85 232.891V88.9219C50.85 67.8559 67.9059 50.8125 88.9875 50.8125H152.55V16.9375C152.55 7.56894 160.125 0 169.5 0ZM110.175 203.25C105.514 203.25 101.7 207.061 101.7 211.719C101.7 216.377 105.514 220.188 110.175 220.188H127.125C131.786 220.188 135.6 216.377 135.6 211.719C135.6 207.061 131.786 203.25 127.125 203.25H110.175ZM161.025 203.25C156.364 203.25 152.55 207.061 152.55 211.719C152.55 216.377 156.364 220.188 161.025 220.188H177.975C182.636 220.188 186.45 216.377 186.45 211.719C186.45 207.061 182.636 203.25 177.975 203.25H161.025ZM211.875 203.25C207.214 203.25 203.4 207.061 203.4 211.719C203.4 216.377 207.214 220.188 211.875 220.188H228.825C233.486 220.188 237.3 216.377 237.3 211.719C237.3 207.061 233.486 203.25 228.825 203.25H211.875ZM139.838 135.5C139.838 129.885 137.605 124.5 133.632 120.529C129.658 116.559 124.269 114.328 118.65 114.328C113.031 114.328 107.642 116.559 103.668 120.529C99.6948 124.5 97.4625 129.885 97.4625 135.5C97.4625 141.115 99.6948 146.5 103.668 150.471C107.642 154.441 113.031 156.672 118.65 156.672C124.269 156.672 129.658 154.441 133.632 150.471C137.605 146.5 139.838 141.115 139.838 135.5ZM220.35 156.672C225.969 156.672 231.358 154.441 235.332 150.471C239.305 146.5 241.538 141.115 241.538 135.5C241.538 129.885 239.305 124.5 235.332 120.529C231.358 116.559 225.969 114.328 220.35 114.328C214.731 114.328 209.342 116.559 205.368 120.529C201.395 124.5 199.163 129.885 199.163 135.5C199.163 141.115 201.395 146.5 205.368 150.471C209.342 154.441 214.731 156.672 220.35 156.672ZM25.425 118.562H33.9V220.188H25.425C11.3883 220.188 0 208.808 0 194.781V143.969C0 129.942 11.3883 118.562 25.425 118.562ZM313.575 118.562C327.612 118.562 339 129.942 339 143.969V194.781C339 208.808 327.612 220.188 313.575 220.188H305.1V118.562H313.575Z" fill="#FF7271"/>
</g>
<defs>
<clipPath id="clip0_224_185">
<rect width="339" height="271" fill="white"/>
</clipPath>
</defs>
</svg>
